# xmcd
#
# Track frame offsets:
#	150
#	14352
#	32143
#	47042
#	60027
#	75246
#	88247
#	104225
#	120606
#	138590
#	152652
#	166417
#	183245
#	199050
#
# Disc length: 2850 seconds
#
# Revision: 1
# Processed by: cddbd v1.4PL0 Copyright (c) Steve Scherf et al.
# Submitted via: CDmax 1.9
#
DISCID=b20b200e
DTITLE=Tennessee - Denn sie wissen nicht, was sie tun
DYEAR=2002
DGENRE=Country
TTITLE0=James Dean
TTITLE1=Wieder mal auf der Reise
TTITLE2=Pantoffelheld
TTITLE3=Diese Woche
TTITLE4=Ich wär so gern...
TTITLE5=Vagabund (Instrumental)
TTITLE6=Wo bist Du ?
TTITLE7=Heut' Nacht lass ich die Flasche steh'n
TTITLE8=Easy Rider (Endlich frei)
TTITLE9=Gegessen wird zu Haus
TTITLE10=Nevada (Instrumental)
TTITLE11=Für Dich
TTITLE12=Hey Mädchen
TTITLE13=Ohne Dich
EXTD=
EXTT0=
EXTT1=
EXTT2=
EXTT3=
EXTT4=
EXTT5=
EXTT6=
EXTT7=
EXTT8=
EXTT9=
EXTT10=
EXTT11=
EXTT12=
EXTT13=
PLAYORDER=
